{
  "accessors": [
    {
      "bufferView": 2,
      "componentType": 5126,
      "count": 3128,
      "max": [
        114.38550567626953,
        1511.4766845703125,
        114.38550567626953
      ],
      "min": [
        -114.38550567626953,
        -29.685705184936523,
        -114.38550567626953
      ],
      "type": "VEC3"
    },
    {
      "bufferView": 2,
      "byteOffset": 37536,
      "componentType": 5126,
      "count": 3128,
      "max": [
        1.0,
        1.0,
        1.0
      ],
      "min": [
        -1.0,
        -1.0,
        -1.0
      ],
      "type": "VEC3"
    },
    {
      "bufferView": 3,
      "componentType": 5126,
      "count": 3128,
      "max": [
        1.0,
        0.7797348499298096,
        1.0,
        1.0
      ],
      "min": [
        -1.0,
        -0.7797349095344543,
        -1.0,
        1.0
      ],
      "type": "VEC4"
    },
    {
      "bufferView": 1,
      "componentType": 5126,
      "count": 3128,
      "max": [
        0.7418614625930786,
        0.9848337173461914
      ],
      "min": [
        0.049744755029678345,
        0.016947627067565918
      ],
      "type": "VEC2"
    },
    {
      "bufferView": 1,
      "byteOffset": 25024,
      "componentType": 5126,
      "count": 3128,
      "max": [
        0.7418614625930786,
        0.9848337173461914
      ],
      "min": [
        0.049744755029678345,
        0.016947627067565918
      ],
      "type": "VEC2"
    },
    {
      "bufferView": 1,
      "byteOffset": 50048,
      "componentType": 5126,
      "count": 3128,
      "max": [
        0.7418614625930786,
        0.9848337173461914
      ],
      "min": [
        0.049744755029678345,
        0.016947627067565918
      ],
      "type": "VEC2"
    },
    {
      "bufferView": 0,
      "componentType": 5125,
      "count": 14688,
      "type": "SCALAR"
    }
  ],
  "asset": {
    "extras": {
      "author": "voodooean (https://sketchfab.com/voodooean)",
      "license": "CC-BY-4.0 (http://creativecommons.org/licenses/by/4.0/)",
      "source": "https://sketchfab.com/3d-models/luxor-obelisk-large-56c25dc4afc54e5bb57ad92da45d7741",
      "title": "Luxor Obelisk Large"
    },
    "generator": "Sketchfab-15.31.0",
    "version": "2.0"
  },
  "bufferViews": [
    {
      "buffer": 0,
      "byteLength": 58752,
      "name": "floatBufferViews",
      "target": 34963
    },
    {
      "buffer": 0,
      "byteLength": 75072,
      "byteOffset": 58752,
      "byteStride": 8,
      "name": "floatBufferViews",
      "target": 34962
    },
    {
      "buffer": 0,
      "byteLength": 75072,
      "byteOffset": 133824,
      "byteStride": 12,
      "name": "floatBufferViews",
      "target": 34962
    },
    {
      "buffer": 0,
      "byteLength": 50048,
      "byteOffset": 208896,
      "byteStride": 16,
      "name": "floatBufferViews",
      "target": 34962
    }
  ],
  "buffers": [
    {
      "byteLength": 258944,
      "uri": "scene.bin"
    }
  ],
  "extensionsRequired": [
    "KHR_materials_pbrSpecularGlossiness"
  ],
  "extensionsUsed": [
    "KHR_materials_pbrSpecularGlossiness"
  ],
  "images": [
    {
      "uri": "textures/O_LG_Mat_diffuse.png"
    },
    {
      "uri": "textures/O_LG_Mat_specularGlossiness.png"
    },
    {
      "uri": "textures/O_LG_Mat_normal.png"
    }
  ],
  "materials": [
    {
      "doubleSided": true,
      "extensions": {
        "KHR_materials_pbrSpecularGlossiness": {
          "diffuseFactor": [
            1.0,
            1.0,
            1.0,
            1.0
          ],
          "diffuseTexture": {
            "index": 0
          },
          "glossinessFactor": 0.04756828460010884,
          "specularFactor": [
            1.0,
            1.0,
            1.0
          ],
          "specularGlossinessTexture": {
            "index": 1
          }
        }
      },
      "name": "O_LG_Mat",
      "normalTexture": {
        "index": 2
      }
    }
  ],
  "meshes": [
    {
      "name": "Obelisk_O LG Mat_0",
      "primitives": [
        {
          "attributes": {
            "NORMAL": 1,
            "POSITION": 0,
            "TANGENT": 2,
            "TEXCOORD_0": 3,
            "TEXCOORD_1": 4,
            "TEXCOORD_2": 5
          },
          "indices": 6,
          "material": 0,
          "mode": 4
        }
      ]
    }
  ],
  "nodes": [
    {
      "children": [
        1
      ],
      "matrix": [
        1.0,
        0.0,
        0.0,
        0.0,
        0.0,
        2.220446049250313e-16,
        -1.0,
        0.0,
        0.0,
        1.0,
        2.220446049250313e-16,
        0.0,
        0.0,
        0.0,
        0.0,
        1.0
      ],
      "name": "Sketchfab_model"
    },
    {
      "children": [
        2
      ],
      "matrix": [
        0.009999999776482582,
        0.0,
        0.0,
        0.0,
        0.0,
        0.0,
        0.009999999776482582,
        0.0,
        0.0,
        -0.009999999776482582,
        0.0,
        0.0,
        0.0,
        0.0,
        0.0,
        1.0
      ],
      "name": "21011f2406bb41edb097502054399da9.fbx"
    },
    {
      "children": [
        3
      ],
      "name": "RootNode"
    },
    {
      "children": [
        4
      ],
      "matrix": [
        1.0,
        0.0,
        0.0,
        0.0,
        0.0,
        1.0,
        0.0,
        0.0,
        0.0,
        0.0,
        1.0,
        0.0,
        0.0,
        29.929363250732422,
        0.0,
        1.0
      ],
      "name": "Obelisk"
    },
    {
      "mesh": 0,
      "name": "Obelisk_O LG Mat_0"
    }
  ],
  "samplers": [
    {
      "magFilter": 9729,
      "minFilter": 9987,
      "wrapS": 10497,
      "wrapT": 10497
    }
  ],
  "scene": 0,
  "scenes": [
    {
      "name": "Sketchfab_Scene",
      "nodes": [
        0
      ]
    }
  ],
  "textures": [
    {
      "sampler": 0,
      "source": 0
    },
    {
      "sampler": 0,
      "source": 1
    },
    {
      "sampler": 0,
      "source": 2
    }
  ]
}
